<?xml version="1.0"?>
<svg xmlns="http://www.w3.org/2000/svg" xmlns:xlink="http://www.w3.org/1999/xlink" id="Layer_1" data-name="Layer 1" viewBox="0 0 512 512" width="512" height="512"><defs><linearGradient id="linear-gradient" x1="256" y1="490.121" x2="256" y2="74.36" gradientUnits="userSpaceOnUse"><stop offset="0.322" stop-color="#a163f5"/><stop offset="0.466" stop-color="#b074ee"/><stop offset="0.752" stop-color="#d8a1dd"/><stop offset="0.898" stop-color="#efbad3"/></linearGradient></defs><path d="M336.142,57.021A226.123,226.123,0,0,0,30,268.5V392.87A6,6,0,0,0,35.86,399H88v28.11c0,23.083,19.008,42.014,42.1,42.2l21.6.151a6.446,6.446,0,0,0,1.487.179,6.351,6.351,0,0,0,1.382.021l22.632.339h.042a5.9,5.9,0,0,0,4.1-1.922A6.316,6.316,0,0,0,183,463.64V292.03a5.818,5.818,0,0,0-5.75-6.03h-46.6C107.381,286,88,304.961,88,328.23V351H78V268.5a178,178,0,0,1,356,0V351H424V328.23A42.137,42.137,0,0,0,381.96,286H334.75a5.818,5.818,0,0,0-5.75,6.03v171a5.766,5.766,0,0,0,5.75,5.97h47.21A42.086,42.086,0,0,0,424,426.83V399h52.14a6,6,0,0,0,5.86-6.13V268.5A226.373,226.373,0,0,0,336.142,57.021ZM100,328.23c0-16.652,14-30.23,30.65-30.23H147v23a6,6,0,0,0,12,0V298h12V457.6l-12-.085V346.667a6,6,0,0,0-12,0V457.429l-16.932-.119A30.377,30.377,0,0,1,100,427.11ZM353,457H341V298h12Zm59-30.17A30.073,30.073,0,0,1,381.96,457H365V298h16.96A30.124,30.124,0,0,1,412,328.23ZM99.525,160.892A188.678,188.678,0,0,0,66,268.5v88.17A6.341,6.341,0,0,0,72.06,363H88v24H42V268.5A214.322,214.322,0,0,1,174.03,70.684l6.491,23.536A190.217,190.217,0,0,0,99.525,160.892ZM320.271,89.769a189.84,189.84,0,0,0-128.533,0l-6.486-23.4a214.391,214.391,0,0,1,141.5,0ZM470,387H424V363h15.94a6.341,6.341,0,0,0,6.06-6.33V268.5A190.273,190.273,0,0,0,331.5,94.22l6.51-23.535A214.355,214.355,0,0,1,470,268.5Z" style="fill:url(#linear-gradient)"/></svg>
